<svg version="1" xmlns="http://www.w3.org/2000/svg" width="2133.333" height="2133.333" viewBox="0 0 1600.000000 1600.000000"><path d="M209.5 142.2c-1.9 6.1-60.8 227.7-60.8 228.8 0 .8 13.7 72.5 30.3 159.4l30.3 157.8-10.8 37.7c-6 20.7-14.6 50.4-19.1 66.1l-8.2 28.5-2.9-.2c-1.5-.1-29.1-4.1-61.3-8.8-98.2-14.4-93.2-13.7-94.1-12.3-.5.7-.3 2 .4 2.9.7.9 23.9 27.4 51.7 58.9 27.8 31.5 50.5 57.5 50.5 57.9 0 .6-6.4.8-77.1 3-18.2.6-33.8 1.3-34.7 1.7-1 .3-1.7 1.2-1.7 1.9s23.8 30.9 53 67c29.1 36.1 53 66.1 53 66.6 0 .4-.6.6-1.2.4-1.7-.6-76-18.7-85.8-20.8-4.1-1-8.5-1.7-9.6-1.7-3.2 0-3.8 2.7-1.1 5.3 1.2 1.2 86.8 75.3 190.2 164.6 103.4 89.3 189.6 163.9 191.4 165.9 3.4 3.5 7.8 5 122 41.5 65.3 20.9 119.7 38 121.1 38 1.4 0 39.1 1.5 83.7 3.3l81.3 3.3 81.2-3.3c44.7-1.8 82.4-3.3 83.8-3.3 1.4 0 55.8-17.1 121.1-38 114.2-36.5 118.6-38 122-41.5 1.8-2 88-76.6 191.4-165.9 103.4-89.3 189-163.4 190.2-164.6 2.7-2.6 2.1-5.3-1.1-5.3-1.1 0-5.5.7-9.6 1.7-9.8 2.1-84.1 20.2-85.7 20.8-.7.2-1.3 0-1.3-.4 0-.5 23.9-30.5 53-66.6 29.2-36.1 53-66.3 53-67 0-.7-.7-1.6-1.7-1.9-.9-.4-16.5-1.1-34.7-1.7-18.2-.5-43-1.3-55.1-1.7-12.1-.4-21.9-1.1-21.8-1.5 0-.5 22.8-26.5 50.5-57.9 27.6-31.4 50.8-57.8 51.5-58.7.7-.9.9-2.2.4-2.9-.9-1.4 4.1-2.1-94.1 12.3-32.2 4.7-59.8 8.7-61.3 8.8l-2.9.2-8.2-28.5c-4.5-15.7-13.1-45.4-19.1-66.1l-10.8-37.7 30.3-157.8c16.6-86.9 30.3-158.6 30.3-159.4 0-.8-13.1-50.5-29.2-110.3-16-59.9-29.7-111.1-30.3-113.9-1.4-5.7-2.5-6.5-7.1-4.7-4.6 1.8-132.4 58.7-137.2 61.1-10.9 5.3-23.6 10.6-28 11.6-2.8.6-10.8 1.8-18 2.6-7.1.9-31.5 3.8-54.1 6.6-22.7 2.7-42.2 5-43.4 5-1.7 0-165.7 89.7-178.1 97.3-1.1.7-20.4-.5-60-3.7-32.1-2.5-61.8-4.6-65.9-4.6-4.1 0-33.8 2.1-65.9 4.6-39.6 3.2-58.9 4.4-60 3.7C661.7 318.7 497.7 229 496 229c-1.2 0-20.7-2.3-43.4-5-22.6-2.8-46.9-5.7-54.1-6.6-7.1-.8-15.2-2-18-2.6-4.4-1-17.1-6.3-28-11.6-5.6-2.8-124.4-55.8-132.9-59.3-7.6-3.2-9.5-3.5-10.1-1.7zM357 211c1.2.8.9 1-1.3 1-1.6 0-2.6-.4-2.2-1 .8-1.2 1.6-1.2 3.5 0zm889.5 0c.4.6-.6 1-2.2 1-2.2 0-2.5-.2-1.3-1 1.9-1.2 2.7-1.2 3.5 0zM402 224.2c0 .5-.9.4-2-.2-1.1-.6-2-1.2-2-1.4 0-.2.9-.2 2 .1 1.1.3 2 .9 2 1.5zm800-1.7c0 .2-.9.9-2 1.5-1.2.6-2 .7-2 .1 0-.5.8-1.2 1.8-1.4.9-.3 1.8-.5 2-.6.1 0 .2.1.2.4zM398.3 335.7c68.4 42.5 84.6 52.9 83.5 53.9-3 2.9-154.4 108.7-155.7 108.8-1 .1-5.4-15.7-16.3-58.9l-14.9-59 7-45.5c3.9-25 7.4-47.2 7.8-49.3.4-2.9.9-3.7 2.2-3.2.8.3 39.7 24.3 86.4 53.2zm892-50c.4 2.1 3.9 24.3 7.8 49.3l7 45.5-14.9 59c-10.9 43.2-15.3 59-16.3 58.9-1.3-.1-152.7-105.9-155.7-108.8-1.1-1 15.2-11.5 84.4-54.4 47.2-29.3 86.1-53.2 86.4-53.2.4 0 1 1.7 1.3 3.7zM557.1 659.5c22.3 2 29.9 3 31.9 4.2 3.2 2.2 86.7 74.9 87.6 76.5.7 1.1 5.3 45.2 5.4 51.4 0 3-.3 3.3-10.7 7.8-6 2.5-11.7 4.6-12.8 4.6-1.1 0-30.6-9.3-65.5-20.6l-63.5-20.6-34.9.2c-30.4.1-34.8 0-34.3-1.3.3-.8 5.3-7.9 11.1-15.6 11.1-14.9 12.5-17.6 10.7-21-2-3.7-5.5-3.6-16.3.3-5.6 2-10.3 3.4-10.5 3.2-.3-.2 7.6-6.7 17.5-14.5 18.5-14.5 20.5-16.8 19.2-22.1-1-4.2-4.1-5-21.5-5h-16l9.8-6.5c8.6-5.8 12.3-7.5 33.5-15 13-4.6 25.1-8.4 26.9-8.4 1.7-.1 16.3 1 32.4 2.4zm544.8 6c21.6 7.6 25.1 9.1 33.8 15l9.8 6.5h-16c-17.4 0-20.5.8-21.5 5-1.3 5.3.7 7.6 19.2 22.1 9.9 7.8 17.8 14.3 17.5 14.5-.2.2-4.9-1.2-10.5-3.2-10.8-3.9-14.3-4-16.3-.3-1.8 3.4-.4 6.1 10.7 21 5.8 7.7 10.8 14.8 11.1 15.6.5 1.3-3.9 1.4-34.3 1.3l-34.9-.2-63.5 20.6c-34.9 11.3-64.4 20.6-65.5 20.6-1.1 0-6.8-2.1-12.7-4.6-10.5-4.5-10.8-4.8-10.8-7.8.1-6.2 4.7-50.3 5.4-51.4.9-1.6 84.4-74.3 87.7-76.5 1.9-1.3 9.1-2.3 29.5-4.1 14.8-1.3 29.2-2.4 32-2.5 4.1-.1 10.2 1.7 29.3 8.4zM392.8 832.1c29.8 6.7 54.2 12.7 54.2 13.3 0 .5-4.2 10.9-9.2 22.9l-9.3 21.9-55 27.5c-30.2 15.1-55.6 28-56.2 28.5-1.6 1.3-1.7 5.4-.2 6.3.6.4 7.5-.6 15.4-2.1 8-1.5 14.7-2.5 15-2.2.3.3-5 22.7-11.9 49.8-7 27.1-12.6 50.5-12.6 52s.7 3.3 1.5 4c1.3 1.1 2.2.7 5.5-2.5 2.2-2.1 4.3-3.6 4.7-3.2.3.4-1.3 20.5-3.7 44.6-2.3 24.2-4 44.6-3.7 45.5 1 2.5 3.8 1.9 8.6-1.9 2.4-1.9 4.7-3.5 5-3.5.9 0 34.4 143.5 33.9 145-.2.6-3.3-4.4-6.8-11l-6.5-12.2-55.4-45.3-55.3-45.3-30-47.4c-16.5-26-30.6-48.5-31.4-50-1.1-2.1-1.2-5.6-.7-16.7.3-7.8.9-14.1 1.3-14.1.5 0 1.6 3.2 2.5 7.1 1.8 7.2 3.6 9.3 6 6.8.7-.8 10.3-28 21.4-60.4 11.1-32.5 20.7-59.5 21.2-60 .6-.6 4.7-1.9 9.2-3 6.3-1.5 8.3-2.4 8.5-3.9.4-1.7-.1-1.8-4.5-1.3-2.6.3-7.9 1.2-11.8 2.1-14.7 3.4-21.7 4.7-22.7 4.4-1.1-.4 92.1-62.8 93.8-62.8.7 0 1.7-.7 2.4-1.6 1.1-1.2 1.1-1.7-.1-2.9-.8-.7-11.2-6.8-23.2-13.6-12-6.7-21.6-12.3-21.4-12.5.1-.2 17.4.8 38.2 2.1 20.9 1.4 38.9 2.5 40 2.6 6.9.4 7.4-2.3 1.3-6.9-5.9-4.4-15.6-13.5-13.8-12.9.8.2 25.9 6 55.8 12.8zm866.2-8c-3 2.7-7.4 6.4-9.7 8.1-6.2 4.6-5.7 7.3 1.2 6.9 1.1-.1 19.1-1.2 40-2.6 20.8-1.3 38.1-2.3 38.2-2.1.2.2-9.4 5.8-21.4 12.5-12 6.8-22.4 12.9-23.2 13.6-1.2 1.2-1.2 1.7-.1 2.9.7.9 1.7 1.6 2.4 1.6 1.7 0 94.9 62.4 93.8 62.8-1 .3-8-1-22.7-4.4-3.8-.9-9.2-1.8-11.8-2.1-4.4-.5-4.9-.4-4.5 1.3.2 1.5 2.2 2.4 8.5 3.9 4.5 1.1 8.6 2.4 9.2 3 .5.5 10.1 27.5 21.2 60 11.1 32.4 20.7 59.6 21.4 60.4 2.4 2.5 4.2.4 6-6.8.9-3.9 2-7.1 2.5-7.1.4 0 1 6.3 1.3 14.1.5 11.1.4 14.6-.7 16.7-.8 1.5-14.9 24-31.4 50l-30 47.4-55.3 45.3-55.4 45.3-6.5 12.2c-3.5 6.6-6.6 11.6-6.8 11-.5-1.5 33-145 33.9-145 .3 0 2.6 1.6 5 3.5 4.8 3.8 7.6 4.4 8.6 1.9.3-.9-1.4-21.3-3.7-45.5-2.4-24.1-4-44.2-3.7-44.6.4-.4 2.5 1.1 4.7 3.2 3.3 3.2 4.2 3.6 5.5 2.5.8-.7 1.5-2.5 1.5-4s-5.6-24.9-12.6-52c-6.9-27.1-12.2-49.5-11.9-49.8.3-.3 7 .7 15 2.2 7.9 1.5 14.8 2.5 15.4 2.1 1.5-.9 1.4-5-.1-6.3-.7-.5-26-13.4-56.3-28.5l-55-27.5-9.2-21.9c-5.1-12-9.3-22.4-9.3-22.9 0-.8 105.8-25.9 110.5-26.3.6 0-1.5 2.2-4.5 5zM581 928.3l44.5 8.2-.1 21c-.3 37.7-1.6 85.6-2.4 85.3-.9-.3-31.6-40.3-33.1-43-.5-.9-1.9-2-3.1-2.3-5.6-1.6-120.4-42.9-121.2-43.6-.9-.8-10.6-47.6-10-48.2.2-.2 18.5 3 40.7 7 22.1 4.1 60.2 11.1 84.7 15.6zm559 1.2c-2.6 13-5.1 24-5.6 24.4-.8.7-115.6 42-121.2 43.6-1.2.3-2.6 1.4-3.1 2.3-1.5 2.7-32.2 42.7-33.1 43-.8.3-2.1-47.6-2.4-85.3l-.1-21 84.5-15.6c46.5-8.6 84.8-15.4 85.1-15.3.3.2-1.5 11-4.1 23.9zm-348.8 19.3c10.4 28.3 12.2 29.1 13.9 6.2.5-8 1.1-14.6 1.3-14.8.2-.1 4.5 5.2 9.7 12 9.2 12.2 14.3 17.8 16 17.8.9 0 7.3-13.1 10.4-21.2 1.9-5.1 2.9-5.4 3.9-1.1 2.7 11.2 3.6 13.3 6.1 13.3 3.1 0 3.8-1.4 6.5-13.5 1.2-5.5 2.5-10.4 2.7-10.8.3-.5 22.3 28.3 48.9 64l48.4 64.8 18.3 12.5c10.1 6.9 32.6 22.2 49.9 34l31.5 21.5 20.5 43c18.6 38.9 20.8 43 22.9 43 2.1 0 2.7-.9 4.7-7.5 3.7-12.1 4.1-12.4 4.1-3.4.1 12.1 1.2 20.5 2.7 21.1.8.3 5.2-3.1 10.1-7.6 4.8-4.4 8.8-7.9 9-7.7.2.2-3.5 9.6-8.2 21-4.7 11.3-8.5 21-8.5 21.5s.6 1.4 1.4 2c1.1.9 3.3.3 10.2-2.9 4.8-2.2 8.9-3.9 9-3.7.7.6-43.3 114.8-44.7 116.2-.8.8-26.4 15.2-56.9 32.1-52.5 28.9-55.8 30.6-61.5 31-14.2 1.1-159.4 6.4-173.5 6.4-14.1 0-159.3-5.3-173.5-6.4-5.7-.4-9-2.1-61.5-31-30.5-16.9-56.1-31.3-56.9-32.1-1.4-1.4-45.4-115.6-44.7-116.2.1-.2 4.2 1.5 9 3.7 6.9 3.2 9.1 3.8 10.2 2.9.8-.6 1.4-1.5 1.4-2s-3.8-10.2-8.5-21.5c-4.7-11.4-8.4-20.8-8.2-21 .2-.2 4.2 3.3 9 7.7 4.9 4.5 9.3 7.9 10.1 7.6 1.5-.6 2.6-9 2.7-21.1 0-9 .4-8.7 4.1 3.4 2 6.6 2.6 7.5 4.7 7.5s4.3-4.1 22.9-43l20.5-43 31.5-21.5c17.3-11.8 39.8-27.1 49.9-34l18.3-12.5 48.4-64.8c26.6-35.7 48.6-64.5 48.9-64 .2.4 1.5 5.3 2.7 10.8 2.7 12.1 3.4 13.5 6.5 13.5 2.1 0 2.7-.8 4-5.8 2.7-9.6 3-10.2 4-10.3.6-.1 2.4 3.3 4 7.5 1.7 4.2 4 8.8 5.2 10.3 3.6 4.8 5.2 2.6 11.6-17 3.2-9.7 6.1-17.7 6.5-17.7.4 0 4.2 9.3 8.4 20.8zm-456.8-3.7c-1 .4-2.6.8-3.4.8-1.2 0-1.1-.3.3-1.4 1.1-.7 2.6-1.1 3.5-.8 1.3.6 1.3.8-.4 1.4zm935.3.5c-.3.3-1.7.2-3.2-.2-1.9-.5-2.3-.9-1.4-1.5 1.3-.7 5.5.8 4.6 1.7zM748 950c0 .5-.2 1-.4 1-.3 0-.8-.5-1.1-1-.3-.6-.1-1 .4-1 .6 0 1.1.4 1.1 1zm106-.6c0 .3-.4.8-1 1.1-.5.3-1 .1-1-.4 0-.6.5-1.1 1-1.1.6 0 1 .2 1 .4zm-54 5.2c0 .8-.4 1.2-1 .9-.5-.3-1-1-1-1.6 0-.5.5-.9 1-.9.6 0 1 .7 1 1.6z"/><path d="M756 1112c-21.7.3-40.3.9-41.3 1.4-4.9 2.3-9.8 11.3-23.8 43.8-15.5 36.1-16.2 38.6-12.3 45.9 1 2 15.6 18.4 32.3 36.3 22.1 23.9 31.4 33.3 34.5 34.7 4.4 2.1 51.4 14.9 54.6 14.9 3.2 0 50.2-12.8 54.6-14.9 3.1-1.4 12.4-10.8 34.5-34.7 16.7-17.9 31.3-34.3 32.3-36.3 3.9-7.3 3.2-9.8-12.3-45.9-14.1-32.6-19-41.7-23.8-43.7-3.5-1.5-70.8-2.3-129.3-1.5z"/></svg>